PathFileType	4	(X/Y/Z)	10_2_6_p0_0-475_filt_butterworth.trc
DataRate	CameraRate	NumFrames	NumMarkers	Units	OrigDataRate	OrigDataStartFrame	OrigNumFrames
60.0	60.0	4	27	m	60.0	0	475
Frame#	Time	RHip			RKnee			RAnkle			RBigToe			RSmallToe			RHeel			LHip			LKnee			LAnkle			LBigToe			LSmallToe			LHeel			Neck			Head			Nose			RShoulder			RElbow			RWrist			RThumb			RIndex			RPinky			LShoulder			LElbow			LWrist			LThumb			LIndex			LPinky			
		X1	Y1	Z1	X2	Y2	Z2	X3	Y3	Z3	X4	Y4	Z4	X5	Y5	Z5	X6	Y6	Z6	X7	Y7	Z7	X8	Y8	Z8	X9	Y9	Z9	X10	Y10	Z10	X11	Y11	Z11	X12	Y12	Z12	X13	Y13	Z13	X14	Y14	Z14	X15	Y15	Z15	X16	Y16	Z16	X17	Y17	Z17	X18	Y18	Z18	X19	Y19	Z19	X20	Y20	Z20	X21	Y21	Z21	X22	Y22	Z22	X23	Y23	Z23	X24	Y24	Z24	X25	Y25	Z25	X26	Y26	Z26	X27	Y27	Z27	
0	0.0	0.30357039204717245	0.5597899043226762	0.9440809168654885	0.3072030292303906	0.6845135621939975	1.3897875064769853	0.3115988684961877	0.829241326971664	1.8102452030675074	0.2790383412066114	0.6068604987745793	1.8457961334106545	0.32854445206650346	0.6598827074073259	1.8527465751353762	0.2822815384097257	0.896266708828371	1.8571372480693935	0.07565235979700488	0.5301392024562389	0.9494503615681301	0.0850109284112828	0.6511535033667596	1.3874806003795443	0.07949624098101286	0.7734317290751216	1.8043801281547036	0.11681529265516434	0.614012806070855	1.8622124807197409	0.05630082023157714	0.6363833529773995	1.8447153468038096	0.09017889874181154	0.8728695109351107	1.859283141336271	0.1913952520007087	0.4009614745420706	0.3337300022897294	0.21247647840658535	0.2876814996707364	0.09403758493878753	0.2263915039617233	0.2527897519331529	0.23677296414635546	0.36030199699642584	0.43448963840737886	0.43661157351137003	0.41839397054883015	0.4266642680388506	0.7241940275141238	0.26644787619331856	0.31959340946643056	0.8860298377208918	0.1812755091107524	0.35368717838199604	0.972808110905701	0.1672046756989573	0.3549297319007604	0.9858539995747085	0.18052764716487008	0.34265279447840624	0.9921783101106744	0.04189257279407282	0.4176228090609314	0.42088144719459525	0.005899295369741576	0.3858425525343795	0.7123263987383734	0.14026249909093694	0.3231748761601136	0.8937770248185384	0.2256007332594906	0.3161738479571858	0.9531048024114708	0.207208607181438	0.33177449275765225	0.9808478296380693	0.18603953141352048	0.33439619362437334	0.9939708672523052
1	0.0166666666666666	0.3063917438401744	0.5515375585674209	0.9463996859396835	0.30670320126120443	0.6854325095751095	1.3925512826819881	0.3148898887192255	0.818393462935583	1.806344732235294	0.2777076251533945	0.5972754519687915	1.8395591715893553	0.32632591422412827	0.6506919311855792	1.8492818137851321	0.28341834039006536	0.8995831551730917	1.8608915989570072	0.07578971571480321	0.529765784374052	0.9506858254993039	0.08501487840414179	0.6511050907749096	1.387712061544949	0.0820656205807475	0.777683018496461	1.8057444337140471	0.1164525997058111	0.6267866769914017	1.86510288467926	0.05650218752203419	0.6391646820569631	1.845406741745227	0.09325286861488793	0.8630752170713694	1.8568471860200269	0.19144883386349898	0.400804489346464	0.33368339379233347	0.21249212726899533	0.2876110491379717	0.09402079798380047	0.2263954017310951	0.25289417723320123	0.23673246848315177	0.36025589938861796	0.4345646081776813	0.4370574276564746	0.41826875816448406	0.4260785077697106	0.7233680363174865	0.2689460695516638	0.3202915567870494	0.886027675302334	0.18307582874766962	0.3420862769807788	0.9730235421488723	0.1697838705881257	0.3488722212888366	0.9851527620599516	0.18041274352419504	0.3427850106230585	0.9922564606750411	0.04081598358234335	0.4099724036902841	0.4216699785046348	0.007206822322074565	0.37962939293109654	0.7120380395961732	0.14262677310375035	0.3262845434221872	0.8938660820725857	0.2193553729492283	0.3245657382229775	0.9580878081633256	0.2051575135096472	0.3324593035949754	0.9829558388712534	0.18435263440581837	0.32903903422596714	0.993642625626009
2	0.0333333333333333	0.3080496510430601	0.5466242518884163	0.947340944222259	0.30639510316255814	0.6859729542952044	1.3941968411517556	0.3168819355043418	0.8118673330065364	1.804004530107612	0.27688768585510587	0.5914701974977778	1.8357607637911255	0.3249680159012727	0.6451223758716202	1.8471759361368045	0.2846093211300172	0.9045248560452218	1.8646448635533255	0.07589916975978798	0.5295444391399413	0.9517052343575054	0.08501804147571194	0.651056062269653	1.3878131207795976	0.08353018391986082	0.7795266022045724	1.8063303499287562	0.11745703259563925	0.632524736837327	1.866746876907106	0.0565085857588713	0.6401890568916339	1.8448957092264795	0.09509441826645965	0.8572180790337125	1.8553926534055099	0.1914918957429628	0.4006956736511526	0.33364993822377764	0.21249667041262063	0.28755037548413	0.09401018399587617	0.22639583055099985	0.25293544506508914	0.23670754994746238	0.3602093419273724	0.4347550968613656	0.43801065560214464	0.4182423777155549	0.426010146466215	0.7233043177627544	0.27049476253315907	0.32071415933796527	0.8860327527423127	0.18385640394969086	0.33353697809305605	0.9731717733093844	0.17049114530762996	0.3475617550366248	0.9849827265165174	0.18030946024578004	0.34293379347308206	0.9922962324367337	0.040163890633567005	0.40534773483012587	0.4221492411602905	0.008086470682013996	0.3757928764115707	0.7122315590596622	0.14302514347229534	0.3264439265553563	0.8938327653811684	0.21487273717633362	0.32929631244445656	0.960438605678995	0.2034575779721175	0.33259857398413895	0.9836672625789878	0.18313882719757607	0.32808600947680666	0.9937184230550613
3	0.05	0.30848181460053015	0.5452549954226691	0.9471143485860525	0.3063058656175578	0.6861134845843173	1.3946432191526097	0.31746645705934956	0.8100178214736972	1.8033542366671844	0.27662267804263824	0.589775682297577	1.834614298041816	0.32452477357875215	0.6434968658447366	1.8465469473186595	0.28561978640332625	0.910471579144733	1.868415626717246	0.07598550509761426	0.5295098404969811	0.9528564725892075	0.0850183467167047	0.6510072784036547	1.3877415150157788	0.08386672543458797	0.7788673033972421	1.806133331313745	0.11949506566021695	0.6322561950255419	1.867452288473	0.05634627222337452	0.6395117938677616	1.8433545233063913	0.09560517408070984	0.8555761745776225	1.8549958466034384	0.19151775346988198	0.40063799230573405	0.33363134918510695	0.21249249280753874	0.28751458748652314	0.09400723761126646	0.22639178663268897	0.2529211437604915	0.23670007691629238	0.36016588423387935	0.43502420093258864	0.43931105132907367	0.4182896368701432	0.4262945626662189	0.7237612874209088	0.2710114253945472	0.320848754082001	0.8860432708353029	0.1839472091385177	0.3292776793132713	0.973338849027701	0.16942925338393688	0.3503887786636538	0.9852982663192703	0.1802155031609122	0.3430825539107171	0.9922822960726361	0.0399712822024048	0.4040003991643485	0.42228847857538443	0.008511037107275361	0.3744384153915652	0.7131299199598492	0.14102029351643164	0.32439680361558365	0.8937522344466982	0.21256631865570652	0.33015994023554734	0.9601531314931295	0.2025249927285412	0.332256842652892	0.9830092417902135	0.18250169396149862	0.33118621395158065	0.9941272466679956
